<svg xmlns="http://www.w3.org/2000/svg" xmlns:xlink="http://www.w3.org/1999/xlink" id="Capa_1" x="0px" y="0px" viewBox="0 0 123.4 123.4" style="enable-background:new 0 0 123.4 123.4;" xml:space="preserve">
<style type="text/css">
	.st0{fill:#FF00B3;}
</style>
<g>
	<path class="st0" d="M109.47,119.42H57.72c-5.49,0-9.95-4.46-9.95-9.95s4.46-9.95,9.95-9.95h51.75c5.49,0,9.95,4.46,9.95,9.95   S114.95,119.42,109.47,119.42L109.47,119.42z M57.04,69.27c0.19-0.93,1.01-1.6,1.95-1.6H81.6c1.1,0,1.99,0.89,1.99,1.99v25.87   H57.72c-2.14,0-4.16,0.5-5.97,1.36v-1.17L57.04,69.27L57.04,69.27z M63.69,49.47c3.42-0.89,5.97-3.98,5.97-7.68   c0-4.39-3.57-7.96-7.96-7.96c-1.47,0-2.83,0.43-4.02,1.13L36.86,14.14c0.55-1.18,0.87-2.47,0.92-3.84L72.6,30.14   c3.1,1.77,5.03,5.08,5.03,8.65v24.9H63.69V49.47L63.69,49.47z M57.72,41.8c0-2.2,1.79-3.98,3.98-3.98c2.2,0,3.98,1.79,3.98,3.98   s-1.79,3.98-3.98,3.98C59.5,45.78,57.72,43.99,57.72,41.8L57.72,41.8z M20.51,68.06c-0.19-0.05-0.36-0.13-0.55-0.17l1.67-50.24   c1.71,1.39,3.86,2.25,6.23,2.25c0.44,0,0.85-0.07,1.27-0.13L20.51,68.06L20.51,68.06z M28.49,106.15l5.34,4.27v1.03h-3.98v3.98   h3.98v3.98H20.87c-2.66,0-5.16-1.04-7.04-2.92l-5.97-5.97c-2.5-2.5-3.88-5.83-3.88-9.36c0-3.16,1.13-6.22,3.19-8.62l5.55-6.48   c1.51,0.93,3.28,1.5,5.19,1.5c1.55,0,2.99-0.38,4.3-1.02l1.14,10.25C23.76,100.51,25.59,103.83,28.49,106.15L28.49,106.15z    M17.91,71.65c3.29,0,5.97,2.68,5.97,5.97c0,3.29-2.68,5.97-5.97,5.97c-3.29,0-5.97-2.68-5.97-5.97   C11.94,74.33,14.62,71.65,17.91,71.65L17.91,71.65z M27.86,3.98c3.29,0,5.97,2.68,5.97,5.97s-2.68,5.97-5.97,5.97   c-3.29,0-5.97-2.68-5.97-5.97S24.57,3.98,27.86,3.98L27.86,3.98z M111.46,73.64v1.99H95.53v3.98h17.91c1.1,0,1.99,0.89,1.99,1.99   v15.3c-1.81-0.86-3.83-1.36-5.97-1.36H87.57V79.61h3.98v-3.98h-3.98v-3.98h21.89C110.56,71.65,111.46,72.54,111.46,73.64   L111.46,73.64z M119.42,99.74V81.6c0-2.59-1.67-4.78-3.98-5.6v-2.36c0-3.29-2.68-5.97-5.97-5.97H87.21   c-0.82-2.31-3.01-3.98-5.6-3.98v-24.9c0-5-2.69-9.63-7.04-12.1L36.41,4.94C34.68,2,31.52,0,27.86,0c-5.46,0-9.91,4.43-9.95,9.89   h-0.01l-1.93,57.98c-4.56,0.9-8.02,4.93-8.02,9.76c0,2.14,0.69,4.11,1.85,5.74l-5.66,6.6C1.47,93.08,0,97.06,0,101.17   c0,4.6,1.79,8.92,5.04,12.18l5.97,5.97c2.63,2.63,6.13,4.08,9.85,4.08h14.96h1.99h3.98v-3.98h-3.98v-10.91l-6.84-5.47   c-2.08-1.66-3.38-4.03-3.67-6.67l-1.43-12.84c1.23-1.66,1.99-3.69,1.99-5.91c0-3.08-1.44-5.81-3.65-7.64l9.25-51.82   c0.35-0.24,0.66-0.53,0.98-0.81l20.42,20.42c-0.7,1.18-1.13,2.55-1.13,4.02c0,3.7,2.55,6.79,5.97,7.68v14.21h-0.72   c-2.84,0-5.3,2.02-5.86,4.8l-5.33,26.66l-0.03,4.58c-2.47,2.51-3.99,5.95-3.99,9.74c0,7.68,6.25,13.93,13.93,13.93h51.75   c7.68,0,13.93-6.25,13.93-13.93C123.4,105.68,121.88,102.25,119.42,99.74L119.42,99.74z"></path>
	<path class="st0" d="M107.48,113.45c-2.2,0-3.98-1.79-3.98-3.98s1.79-3.98,3.98-3.98s3.98,1.79,3.98,3.98   S109.67,113.45,107.48,113.45L107.48,113.45z M95.53,113.45c-2.2,0-3.98-1.79-3.98-3.98s1.79-3.98,3.98-3.98s3.98,1.79,3.98,3.98   S97.73,113.45,95.53,113.45L95.53,113.45z M83.59,113.45c-2.2,0-3.98-1.79-3.98-3.98s1.79-3.98,3.98-3.98s3.98,1.79,3.98,3.98   S85.79,113.45,83.59,113.45L83.59,113.45z M71.65,113.45c-2.2,0-3.98-1.79-3.98-3.98s1.79-3.98,3.98-3.98   c2.2,0,3.98,1.79,3.98,3.98S73.85,113.45,71.65,113.45L71.65,113.45z M59.71,113.45c-2.2,0-3.98-1.79-3.98-3.98   s1.79-3.98,3.98-3.98c2.2,0,3.98,1.79,3.98,3.98S61.9,113.45,59.71,113.45L59.71,113.45z M107.48,101.51   c-2.39,0-4.51,1.08-5.97,2.75c-1.46-1.67-3.58-2.75-5.97-2.75c-2.39,0-4.51,1.08-5.97,2.75c-1.46-1.67-3.58-2.75-5.97-2.75   c-2.39,0-4.51,1.08-5.97,2.75c-1.46-1.67-3.58-2.75-5.97-2.75c-2.39,0-4.51,1.08-5.97,2.75c-1.46-1.67-3.58-2.75-5.97-2.75   c-4.39,0-7.96,3.57-7.96,7.96s3.57,7.96,7.96,7.96c2.39,0,4.51-1.08,5.97-2.75c1.46,1.67,3.58,2.75,5.97,2.75   c2.39,0,4.51-1.08,5.97-2.75c1.46,1.67,3.58,2.75,5.97,2.75c2.39,0,4.51-1.08,5.97-2.75c1.46,1.67,3.58,2.75,5.97,2.75   c2.39,0,4.51-1.08,5.97-2.75c1.46,1.67,3.58,2.75,5.97,2.75c4.39,0,7.96-3.57,7.96-7.96S111.87,101.51,107.48,101.51L107.48,101.51   z"></path>
	<path class="st0" d="M77.62,83.59H61.74l1.59-7.96h14.29V83.59L77.62,83.59z M81.6,71.65H60.07L57.76,83.2l-0.04,4.37H81.6V71.65   L81.6,71.65z"></path>
	<polygon class="st0" points="103.5,83.59 111.46,83.59 111.46,87.57 103.5,87.57 103.5,83.59  "></polygon>
	<polygon class="st0" points="91.55,83.59 99.51,83.59 99.51,87.57 91.55,87.57 91.55,83.59  "></polygon>
</g>
</svg>