<svg xmlns="http://www.w3.org/2000/svg" xmlns:xlink="http://www.w3.org/1999/xlink" id="Capa_1" x="0px" y="0px" viewBox="0 0 106.76 130.98" style="enable-background:new 0 0 106.76 130.98;" xml:space="preserve">
<style type="text/css">
	.st0{fill:#FF00B3;}
</style>
<g>
	<path class="st0" d="M105.34,94.28l-12.19-4.44c-1.12-0.41-2.36,0.17-2.77,1.3l-0.74,2.03l-14.12-5.14   c-0.36-0.13-0.74-0.17-1.11-0.1l-29.39,5.19c-2.66,0.47-4.95,2.16-6.19,4.57l-13.48-4.93c-2.15-0.79-4.54-0.69-6.61,0.29   c-2.63,1.23-4.47,3.7-4.91,6.58c-0.54,4.16,1.93,8.13,5.9,9.49l44.4,16.16c0.24,0.09,0.49,0.13,0.74,0.13   c0.24,0,0.47-0.04,0.69-0.11l12.4-4.19l1.32,0.48l-0.74,2.03c-0.41,1.12,0.17,2.36,1.3,2.77l12.19,4.44   c0.24,0.09,0.49,0.13,0.74,0.13c0.32,0,0.63-0.07,0.91-0.2c0.52-0.24,0.92-0.68,1.12-1.22l11.83-32.51   C107.03,95.92,106.45,94.69,105.34,94.28L105.34,94.28z M78.73,116.81c-0.46-0.17-0.97-0.17-1.43-0.02l-12.4,4.19l-43.69-15.9   c-2.02-0.67-3.31-2.65-3.11-4.77c0.21-1.45,1.13-2.7,2.46-3.31c1.04-0.49,2.23-0.54,3.3-0.15l14.04,5.11   c0.01,0.4,0.03,0.79,0.09,1.19c0.85,4.69,5.32,7.82,10.01,7.02l24.34-4.29l-0.75-4.26l-24.33,4.29c-2.35,0.41-4.59-1.14-5.01-3.49   c-0.09-0.57-0.08-1.15,0.05-1.71c0.03-0.19,0.08-0.37,0.15-0.54c0.53-1.45,1.79-2.51,3.31-2.79l28.81-5.08l13.58,4.94l-7.4,20.33   L78.73,116.81z M91.49,126.05l-8.13-2.96l10.36-28.45l8.13,2.96L91.49,126.05z M91.49,126.05"></path>
	<rect x="47.57" y="58.39" class="st0" width="4.32" height="4.32"></rect>
	<rect x="56.22" y="58.39" class="st0" width="4.32" height="4.32"></rect>
	<rect x="38.92" y="58.39" class="st0" width="4.33" height="4.32"></rect>
	<rect x="47.57" y="49.74" class="st0" width="4.32" height="4.33"></rect>
	<rect x="56.22" y="49.74" class="st0" width="4.32" height="4.33"></rect>
	<rect x="38.92" y="49.74" class="st0" width="4.33" height="4.33"></rect>
	<rect x="47.57" y="41.09" class="st0" width="4.32" height="4.32"></rect>
	<rect x="56.22" y="41.09" class="st0" width="4.32" height="4.32"></rect>
	<rect x="38.92" y="41.09" class="st0" width="4.33" height="4.32"></rect>
	<rect x="47.57" y="32.44" class="st0" width="4.32" height="4.32"></rect>
	<rect x="56.22" y="32.44" class="st0" width="4.32" height="4.32"></rect>
	<rect x="38.92" y="32.44" class="st0" width="4.33" height="4.32"></rect>
	<rect x="47.57" y="23.79" class="st0" width="4.32" height="4.33"></rect>
	<rect x="56.22" y="23.79" class="st0" width="4.32" height="4.33"></rect>
	<rect x="38.92" y="23.79" class="st0" width="4.33" height="4.33"></rect>
	<rect x="73.52" y="43.25" class="st0" width="8.65" height="4.33"></rect>
	<rect x="73.52" y="51.9" class="st0" width="8.65" height="4.32"></rect>
	<rect x="73.52" y="60.55" class="st0" width="8.65" height="4.32"></rect>
	<rect x="73.52" y="69.2" class="st0" width="8.65" height="4.33"></rect>
	<rect x="17.3" y="51.9" class="st0" width="8.65" height="4.32"></rect>
	<rect x="17.3" y="60.55" class="st0" width="8.65" height="4.32"></rect>
	<rect x="17.3" y="69.2" class="st0" width="8.65" height="4.33"></rect>
	<path class="st0" d="M99.47,84.33v-4.32h-8.65V36.76c0-1.19-0.97-2.16-2.16-2.16H69.2V17.3c0-1.19-0.97-2.16-2.16-2.16h-4.32V8.65   c0-1.19-0.97-2.16-2.16-2.16H51.9V0h-4.32v6.49h-8.65c-1.19,0-2.16,0.97-2.16,2.16v6.49h-4.33c-1.19,0-2.16,0.97-2.16,2.16v25.95   H10.81c-1.19,0-2.16,0.97-2.16,2.16v34.6H0v4.32H99.47z M45.41,80.01v-8.65h8.65v8.65H45.41z M86.5,38.92v41.09H69.2V38.92H86.5z    M41.09,10.81h17.3v4.33h-17.3V10.81z M34.6,19.46h30.27v60.55h-6.49V69.2c0-1.19-0.97-2.16-2.16-2.16H43.25   c-1.19,0-2.16,0.97-2.16,2.16v10.81H34.6V19.46z M12.97,47.57h17.3v32.44h-17.3V47.57z M12.97,47.57"></path>
</g>
</svg>