<svg xmlns="http://www.w3.org/2000/svg" xmlns:xlink="http://www.w3.org/1999/xlink" id="Capa_1" x="0px" y="0px" viewBox="0 0 129.89 129.89" style="enable-background:new 0 0 129.89 129.89;" xml:space="preserve">
<style type="text/css">
	.st0{fill:#FF00B3;}
</style>
<g>
	<g>
		<path class="st0" d="M64.95,34.64c4.78,0,8.66,3.88,8.66,8.66s-3.88,8.66-8.66,8.66c-4.78,0-8.66-3.88-8.66-8.66    S60.16,34.64,64.95,34.64L64.95,34.64z M64.95,56.29c7.17,0,12.99-5.82,12.99-12.99c0-7.17-5.82-12.99-12.99-12.99    S51.96,36.12,51.96,43.3C51.96,50.47,57.78,56.28,64.95,56.29L64.95,56.29z"></path>
		<path class="st0" d="M38.06,79.61c0.48-5.8,3.1-11.21,7.36-15.18l5.73,17.83h-1.94c-3.23,0.01-5.96,2.38-6.43,5.58l-0.94,6.57    C38.96,90.04,37.63,84.83,38.06,79.61L38.06,79.61L38.06,79.61z M49.97,23.81h29.95c4.9,10.97,5.56,23.36,1.87,34.8l-0.48,1.48    l0,0l-7.13,22.17H55.7l-7.13-22.17l0,0l-0.48-1.48C44.41,47.18,45.07,34.78,49.97,23.81L49.97,23.81z M64.95,4.86    c5.2,3.97,9.56,8.94,12.8,14.63h-25.6C55.39,13.8,59.74,8.83,64.95,4.86L64.95,4.86z M91.83,79.61c0.44,5.22-0.89,10.43-3.79,14.8    l-0.94-6.57c-0.47-3.19-3.2-5.56-6.43-5.58h-1.94l5.73-17.83C88.73,68.4,91.35,73.81,91.83,79.61L91.83,79.61z M70.96,93.09H58.93    l1.3-6.49h9.44L70.96,93.09L70.96,93.09z M43.3,101.75c0.23,0,0.46-0.04,0.68-0.11c0.78-0.26,1.34-0.94,1.46-1.75l1.63-11.44    c0.15-1.07,1.06-1.86,2.14-1.86h6.59l-1.65,8.23c-0.24,1.17,0.52,2.31,1.69,2.55c0.14,0.03,0.29,0.04,0.43,0.04h17.32    c1.2,0,2.17-0.97,2.17-2.16c0-0.15-0.01-0.29-0.04-0.43l-1.65-8.23h6.59c1.08,0,1.99,0.79,2.14,1.86l1.63,11.44    c0.12,0.81,0.68,1.49,1.46,1.75c0.22,0.07,0.45,0.11,0.68,0.11c0.57,0,1.12-0.23,1.53-0.63c10.8-10.79,10.82-28.29,0.03-39.09    c-0.71-0.72-1.47-1.39-2.26-2.02l0.02-0.06C93.06,37.92,85.07,13.81,66.2,0.4c-0.75-0.54-1.76-0.54-2.52,0    C44.82,13.81,36.84,37.92,43.97,59.94L43.99,60c-11.9,9.56-13.81,26.95-4.25,38.86c0.63,0.79,1.31,1.54,2.02,2.26    C42.17,101.52,42.72,101.75,43.3,101.75L43.3,101.75z"></path>
		<path class="st0" d="M17.32,129.89h4.33c0-4.8-1.6-9.45-4.55-13.24c1.28-2.13,3.15-3.85,5.38-4.95c0.02,0,0.05,0,0.07-0.02    c1.74-0.84,3.66-1.28,5.59-1.28c4.2,0.02,8.12,2.06,10.55,5.48c-1.23,2.31-1.88,4.89-1.89,7.51h4.33c0-2.21,0.62-4.38,1.8-6.25    h-0.01c0.03-0.04,0.07-0.07,0.1-0.11c2.93-4.3,8.5-5.9,13.26-3.81v5.67h4.33v-17.32h-4.33v7.06c-5.26-1.6-10.97-0.21-14.89,3.64    c-3.29-3.91-8.14-6.18-13.25-6.2c-1.58,0-3.14,0.22-4.66,0.65c-1.75-10.4-10.77-18.01-21.32-17.97H0v4.33h2.16    c8.85-0.03,16.28,6.66,17.18,15.46c-2.1,1.23-3.93,2.88-5.35,4.86c-3.9-3.33-8.87-5.16-14-5.16v4.33    C9.56,112.58,17.31,120.33,17.32,129.89L17.32,129.89z"></path>
		<path class="st0" d="M106.41,106.73c-1.52-0.43-3.08-0.65-4.66-0.65c-5.11,0.01-9.96,2.28-13.25,6.19    c-3.92-3.85-9.64-5.25-14.89-3.64v-7.06h-4.33v17.32h4.33v-5.67c4.76-2.09,10.34-0.49,13.26,3.8c0.03,0.04,0.07,0.07,0.1,0.11    h-0.01c1.18,1.87,1.81,4.04,1.8,6.26h4.33c-0.01-2.62-0.66-5.2-1.89-7.51c2.43-3.42,6.36-5.46,10.55-5.48    c1.94,0,3.85,0.44,5.59,1.28c0.02,0.01,0.05,0.01,0.07,0.02c2.23,1.1,4.1,2.82,5.39,4.94c-2.95,3.78-4.56,8.44-4.56,13.24h4.33    c0.01-9.56,7.76-17.31,17.32-17.32v-4.33c-5.13,0-10.1,1.83-14,5.16c-1.42-1.98-3.25-3.63-5.35-4.86    c0.9-8.8,8.33-15.49,17.18-15.46h2.16v-4.33h-2.16C117.18,88.72,108.16,96.33,106.41,106.73L106.41,106.73z"></path>
		<polygon class="st0" points="54.12,62.78 58.45,62.78 58.45,67.11 54.12,67.11 54.12,62.78   "></polygon>
		<polygon class="st0" points="62.78,62.78 67.11,62.78 67.11,67.11 62.78,67.11 62.78,62.78   "></polygon>
		<polygon class="st0" points="71.44,62.78 75.77,62.78 75.77,67.11 71.44,67.11 71.44,62.78   "></polygon>
		<polygon class="st0" points="23.81,114.74 28.14,114.74 28.14,119.07 23.81,119.07 23.81,114.74   "></polygon>
		<polygon class="st0" points="0,80.1 4.33,80.1 4.33,84.43 0,84.43 0,80.1   "></polygon>
		<polygon class="st0" points="121.23,99.59 125.56,99.59 125.56,103.91 121.23,103.91 121.23,99.59   "></polygon>
		<polygon class="st0" points="103.91,90.93 108.24,90.93 108.24,95.26 103.91,95.26 103.91,90.93   "></polygon>
		<polygon class="st0" points="80.1,125.56 84.43,125.56 84.43,129.89 80.1,129.89 80.1,125.56   "></polygon>
		<polygon class="st0" points="125.56,75.77 129.89,75.77 129.89,80.1 125.56,80.1 125.56,75.77   "></polygon>
	</g>
</g>
</svg>