<svg xmlns="http://www.w3.org/2000/svg" xmlns:xlink="http://www.w3.org/1999/xlink" id="Capa_1" x="0px" y="0px" viewBox="0 0 132 118" style="enable-background:new 0 0 132 118;" xml:space="preserve">
<style type="text/css">
	.st0{fill:#FF00B6;}
</style>
<g>
	<path class="st0" d="M26.31,53.84h12.96c1.09,0,1.97-0.88,1.97-1.97v-4.38c0-1.8-2.71-1.8-2.71,0v3.65H27.04V39.67h5.74   c1.8,0,1.8-2.71,0-2.71h-6.48c-1.09,0-1.97,0.88-1.97,1.97v12.94C24.34,52.96,25.22,53.84,26.31,53.84L26.31,53.84z M26.31,53.84"></path>
	<path class="st0" d="M42.36,36.2c-0.57-0.48-1.43-0.4-1.91,0.18l-6.46,7.76l-2.07-1.68c-0.58-0.48-1.44-0.39-1.92,0.19   c-0.47,0.59-0.38,1.45,0.22,1.91l2.49,2.02c0.85,0.7,2.09,0.64,2.87-0.13l0.05-0.05l6.9-8.29C43.01,37.53,42.93,36.68,42.36,36.2   L42.36,36.2z M42.36,36.2"></path>
	<path class="st0" d="M107.99,37.9H55.16c-1.8,0-1.8,2.71,0,2.71h52.82C109.79,40.61,109.79,37.9,107.99,37.9L107.99,37.9z    M107.99,37.9"></path>
	<path class="st0" d="M107.99,49.12H55.16c-1.8,0-1.8,2.71,0,2.71h52.82C109.79,51.82,109.79,49.12,107.99,49.12L107.99,49.12z    M107.99,49.12"></path>
	<path class="st0" d="M39.88,74.83c-0.75,0-1.35,0.61-1.35,1.35v3.65H27.04V68.36h5.74c1.8,0,1.8-2.71,0-2.71h-6.48   c-1.09,0-1.97,0.88-1.97,1.97v12.94c0,1.09,0.88,1.97,1.97,1.97h12.96c1.09,0,1.97-0.88,1.97-1.97v-4.38   C41.24,75.43,40.63,74.83,39.88,74.83L39.88,74.83z M39.88,74.83"></path>
	<path class="st0" d="M42.36,64.89c-0.57-0.48-1.43-0.4-1.91,0.18l-6.46,7.76l-2.07-1.68c-0.58-0.48-1.44-0.39-1.92,0.19   c-0.47,0.59-0.38,1.45,0.21,1.91l2.49,2.02c0.85,0.7,2.08,0.64,2.87-0.13l0.05-0.05l6.9-8.29C43.01,66.22,42.93,65.37,42.36,64.89   L42.36,64.89z M42.36,64.89"></path>
	<path class="st0" d="M107.99,66.59h-11c-1.8,0-1.8,2.71,0,2.71h11C109.79,69.3,109.79,66.59,107.99,66.59L107.99,66.59z    M107.99,66.59"></path>
	<path class="st0" d="M72.32,66.59H55.16c-1.8,0-1.8,2.71,0,2.71h17.16C74.13,69.3,74.13,66.59,72.32,66.59L72.32,66.59z    M72.32,66.59"></path>
	<path class="st0" d="M59.79,77.81h-4.62c-1.8,0-1.8,2.71,0,2.71h4.62C61.59,80.51,61.59,77.81,59.79,77.81L59.79,77.81z    M59.79,77.81"></path>
	<path class="st0" d="M114.81,3.5H17.19c-3.44,0-6.23,2.79-6.23,6.23v80.9c0,3.44,2.79,6.23,6.23,6.23l51.63,0.37l2.61,10.28   c0,0.02,0.01,0.04,0.02,0.05c1.21,4.13,5.01,6.95,9.31,6.93h18.87c5.37-0.01,9.72-4.36,9.72-9.72v-7.6l5.51-0.3   c3.43-0.02,6.19-2.81,6.2-6.23V9.73C121.05,6.29,118.26,3.5,114.81,3.5L114.81,3.5z M17.19,6.21h97.63c1.95,0,3.53,1.58,3.53,3.53   v13.71H13.66V9.73C13.66,7.79,15.24,6.21,17.19,6.21L17.19,6.21z M106.63,104.78c0,3.87-3.14,7.01-7.01,7.02H80.74   c-3.09,0.01-5.82-2.01-6.71-4.98l-2.86-11.26c-0.68-2.65-1.58-5.24-2.69-7.74l-0.22-0.53c2.93,0,5.67,1.44,7.33,3.85l2.33,3.37   v5.03c0,1.8,2.71,1.8,2.71,0V62.75c0-1.41,1.14-2.55,2.55-2.55c1.41,0,2.55,1.14,2.55,2.55v24.03c0,0.13,0.02,0.26,0.06,0.39v5.52   c0,1.8,2.71,1.8,2.71,0v-7.56c0-0.53,0.21-1.05,0.59-1.43c0.38-0.38,0.89-0.59,1.43-0.59c0.54,0,1.05,0.21,1.43,0.59   c0.38,0.38,0.59,0.89,0.59,1.43v1.53c-0.04,0.24-0.05,0.47-0.05,0.71v5.31c0,0.75,0.61,1.35,1.35,1.35h0.03c0,0,0.02,0,0.03,0   c0.75,0,1.35-0.61,1.35-1.35v-5.78c0.24-1.08,1.25-1.81,2.36-1.69c1.1,0.12,1.94,1.05,1.94,2.16v6.72c0,1.8,2.71,1.8,2.71,0v-4.6   c-0.01-0.59,0.22-1.15,0.64-1.57c0.41-0.42,0.98-0.65,1.57-0.65c0.59,0,1.15,0.24,1.57,0.65c0.41,0.42,0.64,0.98,0.64,1.57V104.78z    M114.81,94.17c-0.02,0-0.05,0-0.07,0l-5.4,0.29V89.5c0-1.79-0.97-3.45-2.55-4.31c-1.57-0.86-3.49-0.8-5,0.17   c-0.58-1.27-1.67-2.24-3-2.65c-1.33-0.41-2.78-0.23-3.97,0.49c-0.52-1.17-1.49-2.08-2.7-2.52c-1.21-0.44-2.54-0.36-3.69,0.21V62.75   c0-2.9-2.35-5.25-5.25-5.25c-2.9,0-5.25,2.35-5.25,5.25v27l-0.1-0.14c-2.17-3.14-5.74-5.02-9.56-5.02c-0.92,0-1.78,0.47-2.28,1.24   c-0.5,0.77-0.58,1.75-0.2,2.59L66,88.92c0.81,1.82,1.51,3.69,2.07,5.6l-50.89-0.36c-1.95,0-3.52-1.58-3.53-3.53V26.15h104.68v64.49   C118.34,92.59,116.76,94.16,114.81,94.17L114.81,94.17z M114.81,94.17"></path>
	<path class="st0" d="M22.28,19.84c2.1,0,3.99-1.26,4.79-3.2c0.8-1.94,0.36-4.17-1.12-5.66c-1.48-1.48-3.72-1.93-5.66-1.12   c-1.94,0.8-3.2,2.7-3.2,4.79C17.09,17.52,19.41,19.84,22.28,19.84L22.28,19.84z M22.28,12.17c1,0,1.91,0.61,2.29,1.53   c0.38,0.93,0.17,2-0.54,2.7c-0.71,0.71-1.78,0.92-2.7,0.54c-0.93-0.38-1.53-1.29-1.53-2.29C19.8,13.28,20.91,12.17,22.28,12.17   L22.28,12.17z M22.28,12.17"></path>
	<path class="st0" d="M35.96,19.84c2.1,0,3.99-1.26,4.79-3.2c0.8-1.94,0.36-4.17-1.12-5.66c-1.48-1.48-3.72-1.93-5.66-1.12   c-1.94,0.8-3.2,2.7-3.2,4.79C30.77,17.52,33.09,19.84,35.96,19.84L35.96,19.84z M35.96,12.17c1,0,1.91,0.61,2.29,1.53   c0.38,0.93,0.17,2-0.54,2.7c-0.71,0.71-1.78,0.92-2.7,0.54c-0.93-0.38-1.53-1.29-1.53-2.29C33.48,13.28,34.59,12.17,35.96,12.17   L35.96,12.17z M35.96,12.17"></path>
	<path class="st0" d="M49.64,19.84c2.1,0,3.99-1.26,4.79-3.2c0.8-1.94,0.36-4.17-1.13-5.66c-1.48-1.48-3.72-1.93-5.65-1.12   c-1.94,0.8-3.2,2.7-3.2,4.79C44.45,17.52,46.77,19.84,49.64,19.84L49.64,19.84z M49.64,12.17c1,0,1.91,0.61,2.29,1.53   c0.38,0.93,0.17,2-0.54,2.7c-0.71,0.71-1.78,0.92-2.71,0.54c-0.93-0.38-1.53-1.29-1.53-2.29C47.16,13.28,48.27,12.17,49.64,12.17   L49.64,12.17z M49.64,12.17"></path>
	<path class="st0" d="M69.84,15.75h43.98c1.8,0,1.8-2.71,0-2.71H69.84C68.03,13.04,68.03,15.75,69.84,15.75L69.84,15.75z    M69.84,15.75"></path>
</g>
</svg>