<svg xmlns="http://www.w3.org/2000/svg" xmlns:xlink="http://www.w3.org/1999/xlink" id="Capa_1" x="0px" y="0px" viewBox="0 0 132 118" style="enable-background:new 0 0 132 118;" xml:space="preserve">
<style type="text/css">
	.st0{fill:#FF00B6;}
</style>
<g>
	<path class="st0" d="M49.55,40.53h10.78c0.87,1.5,2.31,2.61,4.02,3.06v10.1h-3.29c-2.72,0-4.94,2.21-4.94,4.94v4.94h19.74v-4.94   c0-2.72-2.21-4.94-4.94-4.94h-3.29v-10.1c1.72-0.45,3.15-1.56,4.02-3.06h10.79v-4.94c0-3.64-2.44-6.87-5.94-7.87l-5.58-1.59v-0.44   c2.05-1.54,3.29-3.97,3.29-6.55v-2.95c0-4.42-3.29-8.17-7.5-8.53c-2.3-0.21-4.59,0.58-6.29,2.13c-1.7,1.56-2.67,3.77-2.67,6.07   v3.29c0,2.57,1.24,5,3.29,6.55v0.44l-5.58,1.59c-3.5,1-5.94,4.24-5.94,7.87V40.53z M72.58,58.62v1.65H59.42v-1.65   c0-0.91,0.74-1.65,1.65-1.65h9.87C71.84,56.98,72.58,57.71,72.58,58.62L72.58,58.62z M66,40.53c-1.81,0-3.29-1.48-3.29-3.29   c0-1.81,1.48-3.29,3.29-3.29s3.29,1.48,3.29,3.29C69.29,39.05,67.81,40.53,66,40.53L66,40.53z M52.84,35.59   c0-2.17,1.46-4.11,3.55-4.71l7.96-2.28v-4.74l-0.82-0.48c-1.55-0.9-2.47-2.49-2.47-4.25v-3.29c0-1.38,0.58-2.71,1.6-3.64   c1.03-0.95,2.36-1.4,3.78-1.28c2.51,0.22,4.49,2.53,4.49,5.26v2.95c0,1.76-0.92,3.34-2.47,4.25l-0.82,0.48v4.74l7.96,2.28   c2.09,0.6,3.55,2.53,3.55,4.71v1.65h-6.58c0-3.63-2.95-6.58-6.58-6.58c-3.63,0-6.58,2.95-6.58,6.58h-6.58V35.59z M52.84,35.59"></path>
	<path class="st0" d="M111.06,60.62l-5.58-1.59v-0.44c2.05-1.54,3.29-3.97,3.29-6.55v-2.95c0-4.42-3.29-8.17-7.49-8.53   c-2.3-0.2-4.59,0.58-6.29,2.13c-1.7,1.56-2.67,3.77-2.67,6.06v3.29c0,2.57,1.24,5,3.29,6.55v0.44l-5.58,1.59   c-0.98,0.28-1.86,0.75-2.65,1.34V47.11H70.94v3.29H84.1v55.93H47.9V50.4h13.16v-3.29H44.61v14.86c-0.78-0.59-1.67-1.06-2.65-1.34   l-5.58-1.59v-0.44c2.05-1.54,3.29-3.97,3.29-6.55v-2.95c0-4.42-3.29-8.17-7.5-8.53c-2.3-0.2-4.59,0.58-6.29,2.13   c-1.7,1.56-2.67,3.77-2.67,6.06v3.29c0,2.57,1.24,5,3.29,6.55v0.44l-5.58,1.59c-3.5,1-5.94,4.24-5.94,7.87v1.65h29.61v24.73   c-0.78-0.59-1.67-1.06-2.65-1.34l-5.58-1.59v-0.44c2.05-1.54,3.29-3.97,3.29-6.55v-2.95c0-4.42-3.29-8.17-7.5-8.53   c-2.3-0.2-4.59,0.58-6.29,2.13c-1.7,1.56-2.67,3.77-2.67,6.07v3.29c0,2.57,1.24,5,3.29,6.55v0.44l-5.58,1.59   c-3.5,1-5.94,4.24-5.94,7.87v1.65h29.61v6.58h42.77v-6.58H117v-1.65c0-3.64-2.44-6.87-5.94-7.87l-5.58-1.59v-0.44   c2.05-1.54,3.29-3.97,3.29-6.55v-2.95c0-4.42-3.29-8.17-7.49-8.53c-2.3-0.2-4.59,0.58-6.29,2.13c-1.7,1.56-2.67,3.77-2.67,6.07   v3.29c0,2.57,1.24,5,3.29,6.55v0.44l-5.58,1.59c-0.98,0.28-1.86,0.75-2.65,1.34V70.14H117v-1.65   C117,64.86,114.56,61.62,111.06,60.62L111.06,60.62z M18.58,66.85c0.52-1.46,1.72-2.62,3.27-3.06l7.96-2.28v-4.74l-0.82-0.48   c-1.55-0.9-2.47-2.49-2.47-4.25v-3.29c0-1.38,0.58-2.71,1.6-3.64c1.03-0.95,2.37-1.4,3.78-1.28c2.52,0.22,4.49,2.53,4.49,5.25v2.95   c0,1.76-0.92,3.34-2.47,4.25l-0.82,0.48v4.74l7.96,2.28c1.54,0.44,2.74,1.61,3.27,3.06H18.58z M18.58,99.75   c0.52-1.46,1.72-2.62,3.27-3.06l7.96-2.28v-4.74l-0.82-0.48c-1.55-0.9-2.47-2.49-2.47-4.25v-3.29c0-1.38,0.58-2.71,1.6-3.64   c1.03-0.95,2.37-1.4,3.78-1.28c2.52,0.22,4.49,2.53,4.49,5.26v2.95c0,1.76-0.92,3.34-2.47,4.25l-0.82,0.48v4.74l7.96,2.28   c1.54,0.44,2.74,1.61,3.27,3.06H18.58z M90.94,96.69l7.96-2.28v-4.74l-0.82-0.48c-1.55-0.9-2.47-2.49-2.47-4.25v-3.29   c0-1.38,0.58-2.71,1.6-3.64c1.03-0.95,2.36-1.4,3.78-1.28c2.51,0.22,4.49,2.53,4.49,5.26v2.95c0,1.76-0.92,3.34-2.47,4.25   l-0.82,0.48v4.74l7.96,2.28c1.54,0.44,2.74,1.61,3.27,3.06H87.67C88.2,98.29,89.4,97.13,90.94,96.69L90.94,96.69z M87.67,66.85   c0.52-1.46,1.72-2.62,3.27-3.06l7.96-2.28v-4.74l-0.82-0.48c-1.55-0.9-2.47-2.49-2.47-4.25v-3.29c0-1.38,0.58-2.71,1.6-3.64   c1.03-0.95,2.36-1.4,3.78-1.28c2.51,0.22,4.49,2.53,4.49,5.25v2.95c0,1.76-0.92,3.34-2.47,4.25l-0.82,0.48v4.74l7.96,2.28   c1.54,0.44,2.74,1.61,3.27,3.06H87.67z M87.67,66.85"></path>
	<path class="st0" d="M19.94,30.66h4.44l12.01,8.01v-8.01h9.87c2.72,0,4.94-2.21,4.94-4.94V12.56c0-2.72-2.21-4.94-4.94-4.94H19.94   c-2.72,0-4.94,2.21-4.94,4.94v13.16C15,28.44,17.22,30.66,19.94,30.66L19.94,30.66z M18.29,12.56c0-0.91,0.74-1.65,1.65-1.65h26.32   c0.91,0,1.65,0.74,1.65,1.65v13.16c0,0.91-0.74,1.65-1.65,1.65H33.1v5.15l-7.73-5.15h-5.43c-0.91,0-1.65-0.74-1.65-1.65V12.56z    M18.29,12.56"></path>
	<rect x="21.58" y="14.2" class="st0" width="23.03" height="3.29"></rect>
	<rect x="41.32" y="20.78" class="st0" width="3.29" height="3.29"></rect>
	<rect x="21.58" y="20.78" class="st0" width="16.45" height="3.29"></rect>
	<path class="st0" d="M112.06,7.62H85.74c-2.72,0-4.94,2.21-4.94,4.94v13.16c0,2.72,2.21,4.94,4.94,4.94h9.87v8.01l12.01-8.01h4.44   c2.72,0,4.94-2.21,4.94-4.94V12.56C117,9.84,114.78,7.62,112.06,7.62L112.06,7.62z M113.71,25.72c0,0.91-0.74,1.65-1.65,1.65h-5.43   l-7.73,5.15v-5.15H85.74c-0.91,0-1.65-0.74-1.65-1.65V12.56c0-0.91,0.74-1.65,1.65-1.65h26.32c0.91,0,1.65,0.74,1.65,1.65V25.72z    M113.71,25.72"></path>
	<rect x="87.39" y="14.2" class="st0" width="23.03" height="3.29"></rect>
	<rect x="87.39" y="20.78" class="st0" width="16.45" height="3.29"></rect>
	<rect x="107.13" y="20.78" class="st0" width="3.29" height="3.29"></rect>
	<path class="st0" d="M80.81,66.85H67.65v9.87h13.16V66.85z M77.52,73.43h-6.58v-3.29h6.58V73.43z M77.52,73.43"></path>
	<path class="st0" d="M64.35,66.85H51.19v9.87h13.16V66.85z M61.06,73.43h-6.58v-3.29h6.58V73.43z M61.06,73.43"></path>
	<path class="st0" d="M67.65,103.04h13.16v-9.87H67.65V103.04z M70.94,96.46h6.58v3.29h-6.58V96.46z M70.94,96.46"></path>
	<path class="st0" d="M51.19,103.04h13.16v-9.87H51.19V103.04z M54.48,96.46h6.58v3.29h-6.58V96.46z M54.48,96.46"></path>
</g>
</svg>