<svg xmlns="http://www.w3.org/2000/svg" xmlns:xlink="http://www.w3.org/1999/xlink" id="Capa_1" x="0px" y="0px" viewBox="0 0 132 118" style="enable-background:new 0 0 132 118;" xml:space="preserve">
<style type="text/css">
	.st0{fill:#FF00B6;}
</style>
<g>
	<path class="st0" d="M123.61,96.29V67.67c0-3.06-1.03-5.92-2.81-8.24c1.79-1.85,2.81-4.3,2.81-6.86c0-2.65-1.03-5.15-2.91-7.02   c-3.25-3.25-5.04-7.22-5.04-11.18v-6.62c0-10.41-8.47-18.89-18.89-18.89h-1.96c-10.41,0-18.89,8.47-18.89,18.89v6.62   c0,3.96-1.79,7.93-5.04,11.18c-1.88,1.88-2.91,4.37-2.91,7.02c0,2.56,1.02,5.01,2.81,6.86c-1.78,2.32-2.81,5.18-2.81,8.24v28.61   h-3.97V67.67c0-5.17-2.87-9.81-7.49-12.12c-1.21-0.61-2.5-1.03-3.83-1.25l-8.54-1.42v-3.38c1.96-1.76,3.33-4.15,3.79-6.86h2.17   c3.29,0,5.96-2.67,5.96-5.96c0-1.42-0.52-2.7-1.35-3.73c0.88-1.78,1.35-3.73,1.35-5.75v-0.46c0-3.98-2.94-7.29-6.77-7.86l-1.3-2.17   c-2.9-4.84-8.22-7.85-13.87-7.85c-4.32,0-8.38,1.68-11.44,4.74l-1.24,1.24c-3.3,3.3-5.12,7.69-5.12,12.36   c0,2.01,0.47,3.96,1.35,5.75c-0.83,1.03-1.35,2.31-1.35,3.73c0,3.29,2.67,5.96,5.96,5.96h2.17c0.46,2.71,1.83,5.1,3.79,6.86v3.38   l-8.54,1.42c-1.33,0.22-2.62,0.64-3.83,1.25c-4.62,2.31-7.49,6.95-7.49,12.12v28.61c-2.19,0-3.97,1.78-3.97,3.97v3.97   c0,2.19,1.78,3.97,3.97,3.97h115.23c2.19,0,3.97-1.78,3.97-3.97v-3.97C127.59,98.07,125.81,96.29,123.61,96.29L123.61,96.29z    M73.71,48.35c4-4,6.2-8.97,6.2-13.99v-6.62c0-8.23,6.69-14.91,14.91-14.91h1.96c8.22,0,14.91,6.69,14.91,14.91v6.62   c0,5.02,2.2,9.99,6.2,13.99c1.13,1.13,1.75,2.62,1.75,4.22c0,1.48-0.61,2.89-1.72,4.08c-0.57-0.4-1.16-0.77-1.8-1.09   c-1.21-0.61-2.5-1.03-3.83-1.25l-8.55-1.42v-3.38c2.43-2.18,3.97-5.34,3.97-8.86v-9.93h-2.33c-3.09,0-6-1.2-8.19-3.39l-1.4-1.4   l-1.4,1.4c-2.19,2.19-5.1,3.39-8.19,3.39h-2.33v9.93c0,3.52,1.54,6.68,3.97,8.86v3.38l-8.54,1.42c-1.33,0.22-2.62,0.64-3.83,1.25   c-0.64,0.32-1.24,0.69-1.81,1.1c-1.08-1.12-1.71-2.56-1.71-4.09C71.96,50.97,72.58,49.48,73.71,48.35L73.71,48.35z M99.77,54.57   v1.99c0,2.19-1.78,3.97-3.97,3.97c-2.19,0-3.97-1.78-3.97-3.97v-4.68c1.25,0.44,2.58,0.69,3.97,0.69c1.39,0,2.73-0.25,3.97-0.69   V54.57z M95.8,48.59c-4.38,0-7.95-3.56-7.95-7.95V34.6c2.91-0.3,5.65-1.41,7.95-3.22c2.3,1.81,5.03,2.92,7.95,3.22v6.05   C103.75,45.03,100.18,48.59,95.8,48.59L95.8,48.59z M71.96,67.67c0-3.65,2.03-6.93,5.29-8.57c0.86-0.43,1.77-0.72,2.71-0.88   l7.93-1.32c0.19,4.22,3.65,7.6,7.91,7.6c4.26,0,7.72-3.38,7.91-7.6l7.93,1.32c0.94,0.15,1.85,0.45,2.71,0.88   c3.26,1.63,5.29,4.91,5.29,8.57v28.61h-6.01c1.26-1.66,2.04-3.71,2.04-5.96V74.44c0-3.29-2.67-5.96-5.96-5.96H81.89   c-3.29,0-5.96,2.67-5.96,5.96v15.89c0,2.25,0.78,4.3,2.04,5.96h-6.01V67.67z M80.27,92.32h31.05c-0.82,2.31-3.01,3.97-5.6,3.97   H85.87C83.28,96.29,81.1,94.62,80.27,92.32L80.27,92.32z M111.69,88.34H79.91V74.44c0-1.1,0.89-1.99,1.99-1.99h27.81   c1.09,0,1.99,0.89,1.99,1.99V88.34z M54.75,59.11c3.27,1.63,5.29,4.91,5.29,8.57v28.61h-6.01c1.26-1.66,2.04-3.71,2.04-5.96V74.44   c0-3.29-2.67-5.96-5.96-5.96H46.4l1.37-10.96l4.27,0.71C52.98,58.39,53.89,58.68,54.75,59.11L54.75,59.11z M20.67,92.32h31.05   c-0.82,2.31-3.01,3.97-5.6,3.97H26.27C23.68,96.29,21.49,94.62,20.67,92.32L20.67,92.32z M29.38,56.73l4.2,5.6l-3.86,3.86   l-1.16-9.32L29.38,56.73z M39.35,68.48h-6.3l3.15-3.15L39.35,68.48z M43.02,56.73l0.82,0.14l-1.17,9.32l-3.86-3.86L43.02,56.73z    M50.11,72.45c1.09,0,1.99,0.89,1.99,1.99v13.91H20.31V74.44c0-1.1,0.89-1.99,1.99-1.99H50.11z M44.15,40.65   c0,4.38-3.56,7.95-7.95,7.95s-7.95-3.56-7.95-7.95V34.6c2.91-0.3,5.65-1.41,7.95-3.22c2.3,1.81,5.03,2.92,7.95,3.22V40.65z    M50.11,38.67h-1.99V34.7h1.99c1.09,0,1.99,0.89,1.99,1.99C52.09,37.78,51.2,38.67,50.11,38.67L50.11,38.67z M20.31,36.69   c0-1.1,0.89-1.99,1.99-1.99h1.99v3.97h-1.99C21.2,38.67,20.31,37.78,20.31,36.69L20.31,36.69z M26.61,30.71h-2.33v0.01h-1.99   c-0.42,0-0.82,0.04-1.21,0.13c-0.5-1.14-0.78-2.38-0.78-3.64c0-3.61,1.41-7,3.96-9.55l1.24-1.24c2.3-2.3,5.37-3.57,8.63-3.57   c4.26,0,8.27,2.27,10.46,5.92L47,22.78h1.12c2.19,0,3.97,1.78,3.97,3.97v0.46c0,1.27-0.27,2.5-0.78,3.64   c-0.39-0.08-0.79-0.12-1.21-0.12h-1.99v-0.01h-2.33c-3.09,0-6-1.2-8.19-3.39l-1.4-1.4l-1.4,1.4C32.61,29.51,29.7,30.71,26.61,30.71   L26.61,30.71z M36.2,52.57c1.39,0,2.73-0.25,3.97-0.69v2.03l-3.97,5.3l-3.97-5.3v-2.03C33.47,52.32,34.8,52.57,36.2,52.57   L36.2,52.57z M12.36,67.67c0-3.65,2.03-6.93,5.29-8.57c0.86-0.43,1.77-0.72,2.71-0.88l4.27-0.71L26,68.48h-3.71   c-3.29,0-5.96,2.67-5.96,5.96v15.89c0,2.25,0.78,4.3,2.04,5.96h-6.01V67.67z M8.39,104.24v-3.97h115.23l0,3.97H8.39z M8.39,104.24"></path>
</g>
</svg>