<svg xmlns="http://www.w3.org/2000/svg" xmlns:xlink="http://www.w3.org/1999/xlink" id="Capa_1" x="0px" y="0px" viewBox="0 0 132 118" style="enable-background:new 0 0 132 118;" xml:space="preserve">
<style type="text/css">
	.st0{fill:#FF00B6;}
</style>
<path class="st0" d="M80.61,64.08V35.84c0-0.94-0.76-1.69-1.69-1.69c-0.94,0-1.69,0.76-1.69,1.69V40c-0.04,0.02-0.07,0.03-0.11,0.05  L42.8,58.78v-0.39c0-0.86-0.38-1.62-1.05-2.08c-0.66-0.46-1.51-0.54-2.31-0.23L18.4,64.21c-1.23,0.47-2.12,1.76-2.14,3.08h-4.16  c-2.18,0-3.95,1.77-3.95,3.95v7.03c0,2.18,1.77,3.95,3.95,3.95h4.16c0.02,1.31,0.91,2.61,2.14,3.08l3.31,1.28h-3.59  c-2.18,0-3.95,1.7-3.95,3.78c0,0.18-0.25,0.39-0.56,0.39h-0.9c-2.18,0-3.95,1.77-3.95,3.95v9.11c0,2.18,1.77,3.95,3.95,3.95h0.9  c0.32,0,0.56,0.21,0.56,0.39c0,2.08,1.77,3.78,3.95,3.78h2.78v0.72c0,1.56,1.27,2.82,2.82,2.82h6.82c1.44,0,2.75-1.11,2.98-2.54  l0.32-1.98h3.47c2.18,0,3.95-1.77,3.95-3.95v-2.16c0-0.84-0.26-1.62-0.71-2.26c0.45-0.64,0.71-1.42,0.71-2.26v-2.16  c0-0.84-0.26-1.62-0.71-2.26c0.45-0.64,0.71-1.42,0.71-2.26v-0.21c0.17-0.07,0.33-0.15,0.48-0.25c0.66-0.46,1.05-1.21,1.05-2.08  v-0.39l34.31,18.72c0.04,0.02,0.07,0.03,0.11,0.05v4.17c0,0.94,0.76,1.69,1.69,1.69c0.94,0,1.69-0.76,1.69-1.69V85.43  c4.57-1.39,7.9-5.65,7.9-10.68C88.51,69.73,85.17,65.47,80.61,64.08L80.61,64.08z M16.26,78.84h-4.16c-0.31,0-0.56-0.26-0.56-0.56  v-7.03c0-0.31,0.26-0.56,0.56-0.56h4.16V78.84z M22.85,98.6c-0.31,0-0.56-0.26-0.56-0.56v-3.97c0-0.94-0.76-1.69-1.69-1.69  c-0.94,0-1.69,0.76-1.69,1.69v3.97c0,1.47,0.81,2.75,2,3.43v7.07h-2.78c-0.32,0-0.56-0.21-0.56-0.39c0-2.08-1.77-3.78-3.95-3.78  h-0.9c-0.31,0-0.56-0.26-0.56-0.56v-9.11c0-0.31,0.26-0.56,0.56-0.56h0.9c2.18,0,3.95-1.7,3.95-3.78c0-0.18,0.25-0.39,0.56-0.39  h6.84c0.31,0,0.56,0.26,0.56,0.56v7.5c0,0.31-0.26,0.56-0.56,0.56H22.85z M30.23,112.09h-5.95v-10.1h0.67  c1.17,0,2.21-0.51,2.94-1.32c0.06,0.71,0.31,1.37,0.7,1.92c-0.45,0.64-0.71,1.42-0.71,2.26v2.16c0,1.7,1.08,3.14,2.58,3.7  L30.23,112.09z M37.88,107.01c0,0.31-0.26,0.56-0.56,0.56h-5.49c-0.31,0-0.56-0.26-0.56-0.56v-2.16c0-0.31,0.26-0.56,0.56-0.56h5.49  c0.31,0,0.56,0.26,0.56,0.56V107.01z M37.88,100.34c0,0.31-0.26,0.56-0.56,0.56h-5.49c-0.31,0-0.56-0.26-0.56-0.56v-2.16  c0-0.31,0.26-0.56,0.56-0.56h5.49c0.31,0,0.56,0.26,0.56,0.56V100.34z M37.88,93.66c0,0.31-0.26,0.56-0.56,0.56h-5.49  c-0.31,0-0.56-0.26-0.56-0.56v-2.16c0-0.31,0.26-0.56,0.56-0.56H33l4.88,1.89L37.88,93.66L37.88,93.66z M77.22,105.66l-6.2-3.39  V70.29c0-0.94-0.76-1.69-1.69-1.69c-0.94,0-1.69,0.76-1.69,1.69v30.14L42.8,86.88v-2.13c0-0.94-0.76-1.69-1.69-1.69  c-0.94,0-1.69,0.76-1.69,1.69v5.04l-19.73-7.62c-0.01-0.01-0.02-0.03-0.03-0.04V67.39c0.01-0.01,0.02-0.03,0.03-0.04l19.73-7.62  v17.11c0,0.94,0.76,1.69,1.69,1.69c0.94,0,1.69-0.76,1.69-1.69v-14.2l24.83-13.54v13.06c0,0.94,0.76,1.69,1.69,1.69  c0.94,0,1.69-0.76,1.69-1.69V47.24l6.2-3.39V105.66z M80.61,81.82V67.69c2.66,1.23,4.51,3.93,4.51,7.06  C85.12,77.89,83.27,80.59,80.61,81.82L80.61,81.82z M80.61,81.82"></path>
<path class="st0" d="M100.41,57.3c-0.66,0.66-0.67,1.73-0.01,2.4c8.26,8.3,8.26,21.82,0,30.12c-0.66,0.66-0.66,1.74,0.01,2.4  c0.33,0.33,0.76,0.49,1.2,0.49c0.44,0,0.87-0.17,1.2-0.5c9.58-9.62,9.58-25.28,0-34.9C102.14,56.64,101.07,56.64,100.41,57.3  L100.41,57.3z M100.41,57.3"></path>
<path class="st0" d="M92.12,62.63c-0.66,0.66-0.67,1.73-0.01,2.4c5.34,5.37,5.34,14.09,0,19.46c-0.66,0.66-0.66,1.74,0.01,2.4  c0.33,0.33,0.76,0.49,1.2,0.49c0.44,0,0.87-0.17,1.2-0.5c6.65-6.68,6.65-17.56,0-24.24C93.85,61.97,92.78,61.97,92.12,62.63  L92.12,62.63z M92.12,62.63"></path>
<path class="st0" d="M32.95,67.54h-5.48c-0.94,0-1.69,0.76-1.69,1.69c0,0.94,0.76,1.69,1.69,1.69h5.48c0.94,0,1.69-0.76,1.69-1.69  C34.65,68.3,33.89,67.54,32.95,67.54L32.95,67.54z M32.95,67.54"></path>
<path class="st0" d="M32.95,73.06h-5.48c-0.94,0-1.69,0.76-1.69,1.69c0,0.94,0.76,1.69,1.69,1.69h5.48c0.94,0,1.69-0.76,1.69-1.69  C34.65,73.82,33.89,73.06,32.95,73.06L32.95,73.06z M32.95,73.06"></path>
<path class="st0" d="M32.95,78.59h-5.48c-0.94,0-1.69,0.76-1.69,1.69c0,0.94,0.76,1.69,1.69,1.69h5.48c0.94,0,1.69-0.76,1.69-1.69  C34.65,79.35,33.89,78.59,32.95,78.59L32.95,78.59z M32.95,78.59"></path>
<path class="st0" d="M121.02,15.89H87.69c-1.56,0-2.82,1.27-2.82,2.82v25.24c0,1.56,1.27,2.82,2.82,2.82h3.92v5.27  c0,1,0.48,1.8,1.28,2.13c0.25,0.1,0.5,0.15,0.76,0.15c0.58,0,1.16-0.26,1.65-0.74l6.55-6.5c0.13-0.13,0.56-0.3,0.74-0.31h6.56  c0.94,0,1.69-0.76,1.69-1.69c0-0.94-0.76-1.69-1.69-1.69h-6.56c-1.08,0-2.36,0.53-3.13,1.29l-4.47,4.43v-2.89  c0-1.56-1.27-2.82-2.82-2.82h-3.92V19.28h32.2V43.4h-3.39c-0.94,0-1.69,0.76-1.69,1.69c0,0.94,0.76,1.69,1.69,1.69h3.95  c1.56,0,2.82-1.27,2.82-2.82V18.72C123.85,17.16,122.58,15.89,121.02,15.89L121.02,15.89z M121.02,15.89"></path>
<path class="st0" d="M94.68,26.67h19.35c0.94,0,1.69-0.76,1.69-1.69c0-0.94-0.76-1.69-1.69-1.69H94.68c-0.94,0-1.69,0.76-1.69,1.69  C92.99,25.92,93.75,26.67,94.68,26.67L94.68,26.67z M94.68,26.67"></path>
<path class="st0" d="M114.04,29.65H94.68c-0.94,0-1.69,0.76-1.69,1.69c0,0.94,0.76,1.69,1.69,1.69h19.35c0.94,0,1.69-0.76,1.69-1.69  C115.73,30.4,114.97,29.65,114.04,29.65L114.04,29.65z M114.04,29.65"></path>
<path class="st0" d="M94.68,36.01c-0.94,0-1.69,0.76-1.69,1.69c0,0.94,0.76,1.69,1.69,1.69h8.65c0.94,0,1.69-0.76,1.69-1.69  c0-0.94-0.76-1.69-1.69-1.69H94.68z M94.68,36.01"></path>
<path class="st0" d="M38.39,32.48h18.42c0.18,0,0.61,0.18,0.74,0.3l6.56,6.5c0.62,0.61,1.24,0.74,1.65,0.74  c1.01,0,2.04-0.78,2.04-2.28v-5.27h3.92c1.56,0,2.82-1.27,2.82-2.82V4.41c0-1.56-1.27-2.82-2.82-2.82H38.39  c-1.56,0-2.82,1.27-2.82,2.82v25.25C35.57,31.21,36.83,32.48,38.39,32.48L38.39,32.48z M38.96,4.98h32.2v24.12h-3.92  c-1.56,0-2.82,1.27-2.82,2.82v2.89l-4.47-4.43c-0.76-0.76-2.05-1.29-3.13-1.29H38.96L38.96,4.98L38.96,4.98z M38.96,4.98"></path>
<path class="st0" d="M45.38,18.73h19.35c0.94,0,1.69-0.76,1.69-1.69c0-0.94-0.76-1.69-1.69-1.69H45.38c-0.94,0-1.69,0.76-1.69,1.69  C43.68,17.97,44.44,18.73,45.38,18.73L45.38,18.73z M45.38,18.73"></path>
<path class="st0" d="M54.03,21.7h-8.65c-0.94,0-1.69,0.76-1.69,1.69c0,0.94,0.76,1.69,1.69,1.69h8.65c0.94,0,1.69-0.76,1.69-1.69  C55.72,22.46,54.96,21.7,54.03,21.7L54.03,21.7z M54.03,21.7"></path>
</svg>