<svg xmlns="http://www.w3.org/2000/svg" xmlns:xlink="http://www.w3.org/1999/xlink" id="Capa_1" x="0px" y="0px" viewBox="0 0 132 118" style="enable-background:new 0 0 132 118;" xml:space="preserve">
<style type="text/css">
	.st0{fill:#FF00B6;}
</style>
<g>
	<path class="st0" d="M66.37,49.83c-1.15,0-2.08-0.93-2.08-2.08s0.93-2.08,2.08-2.08c1.15,0,2.08,0.93,2.08,2.08   S67.52,49.83,66.37,49.83L66.37,49.83z M52.03,41.69c-1.15,0-2.08-0.93-2.08-2.08c0-1.15,0.93-2.08,2.08-2.08   c1.15,0,2.08,0.93,2.08,2.08C54.11,40.75,53.18,41.69,52.03,41.69L52.03,41.69z M37.68,49.83c-1.15,0-2.08-0.93-2.08-2.08   s0.93-2.08,2.08-2.08c1.15,0,2.08,0.93,2.08,2.08S38.83,49.83,37.68,49.83L37.68,49.83z M80.72,25.62c1.15,0,2.08,0.93,2.08,2.08   c0,1.15-0.93,2.08-2.08,2.08c-1.15,0-2.08-0.93-2.08-2.08C78.63,26.56,79.57,25.62,80.72,25.62L80.72,25.62z M80.72,32.92   c2.87,0,5.21-2.34,5.21-5.21s-2.34-5.21-5.21-5.21s-5.21,2.34-5.21,5.21c0,1.17,0.39,2.26,1.05,3.13L67.99,42.8   c-0.51-0.17-1.06-0.26-1.62-0.26c-1.37,0-2.62,0.53-3.55,1.4l-5.71-3.24c0.08-0.35,0.12-0.72,0.12-1.1c0-2.87-2.34-5.21-5.21-5.21   c-2.87,0-5.21,2.34-5.21,5.21c0,0.38,0.04,0.74,0.12,1.1l-5.71,3.24c-0.93-0.87-2.18-1.4-3.55-1.4c-2.87,0-5.21,2.34-5.21,5.21   c0,2.87,2.34,5.21,5.21,5.21s5.21-2.34,5.21-5.21c0-0.38-0.04-0.74-0.12-1.1l5.71-3.24c0.93,0.87,2.18,1.4,3.55,1.4   c1.37,0,2.62-0.53,3.55-1.4l5.71,3.24c-0.08,0.35-0.12,0.72-0.12,1.1c0,2.87,2.34,5.21,5.21,5.21c2.87,0,5.21-2.34,5.21-5.21   c0-1.17-0.39-2.26-1.05-3.13l8.56-11.96C79.61,32.82,80.15,32.92,80.72,32.92L80.72,32.92z"></path>
	<path class="st0" d="M87.42,90.31c0,0.24-0.19,0.43-0.43,0.43H31.4c-0.24,0-0.43-0.19-0.43-0.43v-3.44h56.45V90.31L87.42,90.31z    M99.93,83.74H88.99H29.41H17.07c-0.71,0-1.3-0.58-1.3-1.3V17.97c0-0.71,0.58-1.3,1.3-1.3h7.37c0.86,0,1.56-0.7,1.56-1.56   c0-0.86-0.7-1.56-1.56-1.56h-7.37c-2.44,0-4.42,1.98-4.42,4.42v64.48c0,2.44,1.98,4.42,4.42,4.42h10.78v3.44   c0,1.96,1.59,3.55,3.55,3.55h15.64l-7.36,14.38c-0.39,0.77-0.09,1.71,0.68,2.1c0.23,0.12,0.47,0.17,0.71,0.17   c0.57,0,1.12-0.31,1.39-0.85l8.09-15.8h17.28l8.09,15.8c0.28,0.54,0.82,0.85,1.39,0.85c0.24,0,0.48-0.06,0.71-0.17   c0.77-0.39,1.07-1.34,0.68-2.1l-7.36-14.38H87c1.96,0,3.55-1.59,3.55-3.55v-3.44h9.37c0.86,0,1.56-0.7,1.56-1.56   C101.49,84.44,100.79,83.74,99.93,83.74L99.93,83.74z"></path>
	<path class="st0" d="M53.65,10.47c0-0.44,0.36-0.8,0.8-0.8h9.51c0.44,0,0.8,0.36,0.8,0.8v3.07h-11.1L53.65,10.47L53.65,10.47   L53.65,10.47z M30.69,16.67h21.4h14.22h35.02c0.71,0,1.3,0.58,1.3,1.3v14.86c0,0.86,0.7,1.56,1.56,1.56c0.86,0,1.56-0.7,1.56-1.56   V17.97c0-2.44-1.98-4.42-4.42-4.42H67.87v-3.07c0-2.16-1.76-3.92-3.92-3.92h-9.51c-2.16,0-3.92,1.76-3.92,3.92v3.07H30.69   c-0.86,0-1.56,0.7-1.56,1.56C29.13,15.97,29.83,16.67,30.69,16.67L30.69,16.67z"></path>
	<path class="st0" d="M39.29,74.76h-3.21V64.07h3.21V74.76L39.29,74.76z M34.51,60.95c-0.86,0-1.56,0.7-1.56,1.56v13.81   c0,0.86,0.7,1.56,1.56,1.56h6.34c0.86,0,1.56-0.7,1.56-1.56V62.51c0-0.86-0.7-1.56-1.56-1.56H34.51L34.51,60.95z"></path>
	<path class="st0" d="M53.64,74.76h-3.21V56.09h3.21V74.76L53.64,74.76z M48.86,52.96c-0.86,0-1.56,0.7-1.56,1.56v21.8   c0,0.86,0.7,1.56,1.56,1.56h6.34c0.86,0,1.56-0.7,1.56-1.56v-21.8c0-0.86-0.7-1.56-1.56-1.56H48.86L48.86,52.96z"></path>
	<path class="st0" d="M67.98,74.76h-3.21V64.07h3.21V74.76L67.98,74.76z M63.2,60.95c-0.86,0-1.56,0.7-1.56,1.56v13.81   c0,0.86,0.7,1.56,1.56,1.56h6.34c0.86,0,1.56-0.7,1.56-1.56V62.51c0-0.86-0.7-1.56-1.56-1.56H63.2L63.2,60.95z"></path>
	<path class="st0" d="M77.55,70.17c-0.86,0-1.56,0.7-1.56,1.56v4.59c0,0.86,0.7,1.56,1.56,1.56h6.34c0.86,0,1.56-0.7,1.56-1.56   s-0.7-1.56-1.56-1.56h-4.78v-3.03C79.11,70.87,78.41,70.17,77.55,70.17L77.55,70.17z"></path>
	<path class="st0" d="M114.81,90.62c-1.34,0.78-3.07,0.31-3.85-1.03l-8.62-14.94c0.86-0.35,1.71-0.77,2.53-1.24   c0.82-0.48,1.6-1,2.34-1.58l8.63,14.94c0.25,0.43,0.38,0.92,0.38,1.41C116.22,89.18,115.68,90.12,114.81,90.62L114.81,90.62z    M90.18,72.43c-4.46-1.2-8.2-4.06-10.51-8.06c-4.77-8.26-1.93-18.86,6.33-23.63c2.72-1.57,5.69-2.31,8.62-2.31   c5.98,0,11.81,3.1,15.01,8.65c2.31,4,2.92,8.66,1.73,13.13c-1.2,4.46-4.06,8.19-8.06,10.51C99.31,73.01,94.65,73.63,90.18,72.43   L90.18,72.43z M118.55,85.21l-8.97-15.53c2.27-2.42,3.93-5.38,4.81-8.68c1.41-5.27,0.69-10.78-2.04-15.5   c-5.63-9.76-18.15-13.11-27.9-7.48c-9.75,5.63-13.11,18.15-7.48,27.9c2.73,4.73,7.13,8.11,12.4,9.52c1.76,0.47,3.55,0.7,5.32,0.7   c1.55,0,3.09-0.18,4.6-0.53l8.96,15.53c1.1,1.9,3.1,2.97,5.15,2.97c1.01,0,2.03-0.26,2.96-0.79c1.83-1.06,2.97-3.03,2.97-5.15   C119.35,87.14,119.07,86.12,118.55,85.21L118.55,85.21z"></path>
	<path class="st0" d="M108.83,60.12c1.1-3.55,0.84-7.36-0.74-10.71c-0.37-0.78-1.3-1.12-2.08-0.75c-0.78,0.37-1.12,1.3-0.75,2.08   c1.25,2.65,1.45,5.65,0.58,8.46c-0.88,2.82-2.77,5.19-5.33,6.67c-2.71,1.56-5.87,1.98-8.89,1.17c-3.02-0.81-5.55-2.75-7.11-5.46   c-3.23-5.59-1.31-12.77,4.29-16c4.09-2.36,9.17-2.05,12.93,0.8c0.69,0.52,1.67,0.39,2.19-0.3c0.52-0.69,0.39-1.67-0.3-2.19   c-4.77-3.61-11.2-4.01-16.38-1.02c-3.43,1.98-5.89,5.18-6.91,9.01c-1.03,3.83-0.5,7.83,1.48,11.26c1.98,3.43,5.18,5.89,9.01,6.91   c1.28,0.34,2.58,0.51,3.86,0.51c2.57,0,5.11-0.67,7.4-1.99C105.33,66.7,107.72,63.7,108.83,60.12L108.83,60.12z"></path>
</g>
</svg>