<svg xmlns="http://www.w3.org/2000/svg" xmlns:xlink="http://www.w3.org/1999/xlink" id="Capa_1" x="0px" y="0px" viewBox="0 0 132 118" style="enable-background:new 0 0 132 118;" xml:space="preserve">
<style type="text/css">
	.st0{fill:#FF00B6;}
</style>
<path class="st0" d="M82.87,49.88c1.12-0.44,1.5-0.59,5.04,0.28l9.92,2.51l0.03,0.01c5.78,1.41,10.42-6.09,11.47-7.93  c1.18-1.78,1.59-3.9,1.17-6c-0.43-2.15-1.69-3.99-3.53-5.18c-1.36-0.87-3.47-2.6-5.92-4.6c-4.77-3.9-11.31-9.23-18.23-13.12  c-1.4-0.78-2.86-1.39-4.38-1.82l-0.06-9.67l-3.3,0.13c-0.33,0.01-3.35,0.18-6.51,1.92c-2.59,1.44-5.67,4.16-6.78,9.21  c-1.95,0.2-4.7,0.71-7.86,1.99c-5.43,2.19-13.2,7.16-19.34,18.4c-2.93,5.36-5.41,15.65-6.64,27.52c-0.77,7.49-0.92,16.24-0.34,20.81  l0.35,2.8h10.48c-0.07,0.17-0.15,0.33-0.22,0.48c-1,2.08-2.06,3.42-2.73,4.14h-2.23c-3.74,0-6.77,3.04-6.77,6.77v7.8h-5.41v6.4  h87.04v-6.4h-5.41v-7.8c0-3.73-3.04-6.77-6.77-6.77H92c0.32-2.71,0.43-7.03-2.32-13.01c-3.29-7.16-6.81-13.87-9.63-19.26  c-1.45-2.77-3.02-5.76-4.1-8.01c0.19-0.02,0.38-0.04,0.57-0.06C80,51,81.73,50.33,82.87,49.88L82.87,49.88z M33.74,80.72  c-0.21-4.44,0-10.94,0.58-16.55c1.12-10.9,3.38-20.52,5.89-25.1c1.66-3.03,3.51-5.68,5.53-7.94c-4.68,9.18-6.32,22.06-5,39.26  c0.32,4.12,0.09,7.54-0.4,10.33H33.74z M95.93,98.14c0.21,0,0.37,0.17,0.37,0.37v7.8H32.88v-7.8c0-0.2,0.17-0.37,0.37-0.37H95.93z   M68.68,50.82c0.79,2.23,2.53,5.6,5.68,11.62c2.79,5.33,6.26,11.95,9.49,18.97c2.31,5.02,1.99,8.19,1.68,10.33H43.26  c2.4-4.33,4.67-11.35,3.86-21.84c-1.31-17,0.48-29.66,5.3-37.65c3.77-6.23,8.67-8.64,13.38-10.57l1.86-0.77l0.11-2.01  c0.18-3.22,1.4-5.44,3.72-6.8c0.18-0.1,0.35-0.2,0.52-0.28l0.04,7.61l2.76,0.37c1.7,0.23,3.34,0.78,4.86,1.63  c6.44,3.62,12.73,8.75,17.32,12.5c2.71,2.21,4.84,3.95,6.51,5.03c0.51,0.33,0.67,0.8,0.72,1.05c0.05,0.25,0.08,0.75-0.26,1.25  l-0.09,0.13l-0.07,0.13c-1.43,2.55-3.63,4.82-4.48,4.94l-9.86-2.5l-0.03-0.01c-4.99-1.22-6.54-0.94-8.89-0.03  c-0.99,0.38-2.11,0.82-4.78,1.13c-1.72,0.2-3.45,0.08-5.14-0.33c-1.38-0.34-2.69-0.86-3.9-1.57l-3.22,5.53  C65.13,49.62,66.86,50.34,68.68,50.82L68.68,50.82z M68.68,50.82"></path>
</svg>